<?xml version="1.0" encoding="utf-8"?>
<!-- Generator: Adobe Illustrator 18.1.1, SVG Export Plug-In . SVG Version: 6.00 Build 0)  -->
<svg version="1.1" id="Ebene_1" xmlns="http://www.w3.org/2000/svg" xmlns:xlink="http://www.w3.org/1999/xlink" x="0px" y="0px"
	 viewBox="0 0 70 60" enable-background="new 0 0 70 60" xml:space="preserve">
<g>
	<path fill="#FFFFFF" d="M26.5,38.1c1-0.6,3.1,1.2,4.7,3.9c1.6,2.7,2.2,5.5,1.2,6L26,51.7c-3.2,1.8-11.7-6.4-18.2-17.2
		C1.3,23.7-2,12.5,1.3,10.6L7.7,7c0,0,3.1,1.2,4.8,3.9c1.6,2.7,2.2,5.4,1.2,5.9l-4.2,2.4c0,0,0.8,6,4.3,11.9
		c3.6,5.9,8.5,9.4,8.5,9.4L26.5,38.1z"/>
</g>
</svg>
