<?xml version="1.0" encoding="utf-8"?>
<!-- Generator: Adobe Illustrator 23.0.3, SVG Export Plug-In . SVG Version: 6.00 Build 0)  -->
<svg version="1.1" id="Layer_1" xmlns="http://www.w3.org/2000/svg" xmlns:xlink="http://www.w3.org/1999/xlink" x="0px" y="0px"
	 viewBox="0 0 379 379" style="enable-background:new 0 0 379 379;" xml:space="preserve">
<style type="text/css">
	.st0{fill:#FFFFFF;}
</style>
<g transform="matrix(-1 0 0 1 379 0)">
	<path class="st0" d="M74.8,256.9c-4.5-6.4-8.4-13.3-11.7-20.4c-3.3-7.2-6.2-14.6-8.5-22.2c-4.8-15.7-7.2-32.1-7.2-48.5
		c-0.1-22.2,4.3-44.1,13-64.5c16.8-39.8,48.5-71.5,88.3-88.3C169,4.3,191-0.1,213.2,0c22.2-0.1,44.1,4.3,64.5,13
		c39.8,16.8,71.5,48.5,88.3,88.3c8.7,20.4,13.1,42.4,13,64.6c0.1,22.2-4.3,44.1-13,64.5c-16.8,39.8-48.5,71.5-88.3,88.3
		c-20.4,8.7-42.4,13.1-64.6,13c-16.4,0-32.8-2.4-48.5-7.2c-7.6-2.3-15-5.2-22.2-8.5c-7.1-3.3-13.9-7.2-20.4-11.7L47.4,379L0,331.6
		L74.8,256.9z M322.4,119.7c-12-28.5-34.6-51.1-63.1-63.1c-29.5-12.3-62.7-12.3-92.2,0c-28.5,12-51.1,34.6-63.1,63.1
		c-12.3,29.5-12.3,62.7,0,92.2c12,28.5,34.6,51.1,63.1,63.1c29.5,12.3,62.7,12.3,92.2,0c28.5-12,51.1-34.6,63.1-63.1
		C334.7,182.4,334.7,149.2,322.4,119.7z"/>
	<path class="st0" d="M170.9,118h84.9l28.3,37l4.9,18v49h-18.9v-9.5H156.9v9.5H138v-49l4.6-18L170.9,118z M250.4,127.5h-74.5
		l-9.9,18.9h94.8L250.4,127.5z M256.4,183.7c2.5,0,5-0.2,7.5-0.6c2.6-0.4,5.1-1,7.6-1.8c1.8-0.5,3.5-1.3,4.9-2.4
		c1.7-1.5,2.6-3.6,2.6-5.8s-1-4.3-2.6-5.8c-0.9-0.8-2-1.4-3.1-1.8c-1.1-0.4-2.3-0.6-3.5-0.6c-1.2,0-2.3,0.2-3.5,0.6
		c-1.1,0.4-2.1,1-3,1.8c-1,0.8-2.3,1.9-4,3.2c-1.7,1.4-3.2,2.8-4.7,4.3c-1.3,1.3-2.4,2.7-3.3,4.3c-0.7,1.4-0.7,2.5,0.2,3.4
		C252.4,183.3,254.1,183.6,256.4,183.7z M241.7,188.9c1.7-2.8,3.1-5.8,4.1-8.9c0.6-1.9,1-3.8,1.3-5.8c0.1-1.1,0-2.2-0.3-3.2l-0.4-1
		h-65.3l-0.4,1c-0.3,1-0.4,2.1-0.3,3.2c0.2,2,0.6,3.9,1.3,5.8c1.1,3.1,2.5,6.1,4.2,8.9H241.7z M154.7,181.2c2.5,0.8,5,1.4,7.5,1.8
		c2.5,0.4,5,0.6,7.6,0.6c2.4,0,4.1-0.5,5-1.3c0.9-0.8,0.9-2,0.1-3.4c-0.9-1.6-2-3-3.3-4.3c-1.5-1.5-3.1-3-4.7-4.3
		c-1.7-1.4-3-2.5-3.9-3.2c-0.9-0.8-1.9-1.4-3-1.8c-1.1-0.4-2.3-0.6-3.5-0.6c-1.2,0-2.4,0.2-3.5,0.6c-1.1,0.4-2.2,1-3.1,1.8
		c-0.9,0.7-1.5,1.7-2,2.7c-0.9,2-0.9,4.2,0,6.2c0.5,1,1.1,2,2,2.7C151.3,179.9,152.9,180.7,154.7,181.2L154.7,181.2z M289,144.6
		h-9.4v-9.5h9.4V144.6z M147.4,144.6H138v-9.5h9.4V144.6z"/>
</g>
</svg>
