<?xml version="1.0" encoding="utf-8"?>
<!-- Generator: Adobe Illustrator 18.1.1, SVG Export Plug-In . SVG Version: 6.00 Build 0)  -->
<svg version="1.1" id="Ebene_3" xmlns="http://www.w3.org/2000/svg" xmlns:xlink="http://www.w3.org/1999/xlink" x="0px" y="0px"
	 viewBox="0 0 70 60" enable-background="new 0 0 70 60" xml:space="preserve">
<path fill="#FFFFFF" d="M65.2,6.5L64.7,5h-5.1L58,0h-1.7l-1.6,5h-5.1l-0.5,1.6l4.1,2.9l-1.6,4.8l1.4,1l4.1-3l4.1,3l1.4-1l-1.6-4.8
	L65.2,6.5z M35.8,45.7h-16c-0.5,0.2-1,0.9-1,0.9l-2,2.9h22l-2-2.9C36.8,46.6,36.3,45.9,35.8,45.7z M55.5,32.6
	C55,31.1,52.6,28,52.6,28s-0.6-1-1.5-2.4c1-0.1,2-0.2,2.1-0.3c0.1-0.2-0.1-2.3-0.6-2.7c-0.4-0.4-2.9-0.8-3.9-0.8
	c-1.7-2.6-3.4-5.2-4.1-6.1c-1.6-1.9-3.2-2-3.2-2s-5.4-0.4-13.8-0.4c-8.4,0-13.1,0.4-13.1,0.4s-1.6,0.1-3.2,2
	c-0.7,0.8-2.5,3.5-4.1,6.1c-1,0-3.5,0.5-3.9,0.8c-0.5,0.5-0.7,2.5-0.6,2.7c0,0.1,1,0.2,2.1,0.3C3.7,27.1,3.1,28,3.1,28
	s-2.5,3.1-2.9,4.6c-0.4,1.2,0.1,11.5,0.3,14.8v4.4c0,0.6,0.6,1.1,1.2,1.1h4.9c0.6,0,1.1-0.5,1.1-1.1v-3.3h6.6l2.5-3.6
	c0,0,0.8-1.1,1.5-1.2c0.7-0.1,18.6-0.1,19.3,0c0.7,0.1,1.5,1.2,1.5,1.2l2.5,3.6H48v3.3c0,0.6,0.6,1.1,1.2,1.1H54
	c0.6,0,1.1-0.5,1.1-1.1v-3.5C55.2,47.2,55.9,34,55.5,32.6z M5.6,36.4c0,0-1.2-0.3-1.4-1c-0.2-0.7,0-3.1,0-3.1s0.5-1.2,1.3-1.6
	c0.9-0.4,1.8,0,1.8,0l4.1,2.5l1,4.5L5.6,36.4z M27.8,39.9C27.8,39.9,27.8,39.9,27.8,39.9C27.8,39.9,27.8,39.9,27.8,39.9z M30.4,35.4
	h11.8c-0.1,0.4-0.2,0.7-0.4,1l-11.6,0.7c-0.2,0.5-0.5,0.8-0.9,1.1l11.9-0.8c-0.3,0.4-0.6,0.7-0.9,0.9c-1.2,0.6-11.9,1.5-12.5,1.5
	c-0.6,0-11.3-0.9-12.5-1.5c-0.3-0.2-0.6-0.5-0.9-0.9l11.8,0.8c-0.4-0.3-0.7-0.7-0.9-1.1l-11.5-0.7c-0.2-0.4-0.3-0.7-0.4-1h11.8
	c0.1-0.4,0.4-0.8,0.7-1.1H13.3c0-0.1,0-0.1,0-0.2c0.2-0.8,0.8-0.9,0.8-0.9l13.7-0.8l13.7,0.8c0,0,0.7,0.1,0.9,0.9c0,0,0,0.1,0,0.2
	H29.7C30,34.6,30.2,35,30.4,35.4z M51.4,35.4c-0.2,0.7-1.4,1-1.4,1l-6.9,1.2l1-4.5l4.1-2.5c0,0,0.9-0.4,1.8,0
	c0.9,0.4,1.3,1.6,1.3,1.6S51.7,34.7,51.4,35.4z"/>
</svg>
